<svg width="108" height="40" fill="none" xmlns="http://www.w3.org/2000/svg"><path fill-rule="evenodd" clip-rule="evenodd" d="M6.25 24A3.753 3.753 0 0110 20.25l3.75-.001V24A3.754 3.754 0 0110 27.75 3.754 3.754 0 016.25 24zM20 10.25A3.754 3.754 0 0123.75 14 3.754 3.754 0 0120 17.75h-3.75V14A3.754 3.754 0 0120 10.25zM27.5 4C28.875 4 30 5.125 30 6.5v25c0 1.375-1.125 2.5-2.5 2.5h-25A2.508 2.508 0 010 31.5v-25C0 5.125 1.125 4 2.5 4h25zM20 20.25A6.258 6.258 0 0026.25 14 6.258 6.258 0 0020 7.75 6.257 6.257 0 0013.75 14v3.75H10A6.257 6.257 0 003.75 24 6.258 6.258 0 0010 30.25 6.258 6.258 0 0016.25 24v-3.75H20z" fill="#0074E4"/><path fill-rule="evenodd" clip-rule="evenodd" d="M6.25 24A3.753 3.753 0 0110 20.25l3.75-.001V24A3.754 3.754 0 0110 27.75 3.754 3.754 0 016.25 24zM20 10.25A3.754 3.754 0 0123.75 14 3.754 3.754 0 0120 17.75h-3.75V14A3.754 3.754 0 0120 10.25zM27.5 4C28.875 4 30 5.125 30 6.5v25c0 1.375-1.125 2.5-2.5 2.5h-25A2.508 2.508 0 010 31.5v-25C0 5.125 1.125 4 2.5 4h25zM20 20.25A6.258 6.258 0 0026.25 14 6.258 6.258 0 0020 7.75 6.257 6.257 0 0013.75 14v3.75H10A6.257 6.257 0 003.75 24 6.258 6.258 0 0010 30.25 6.258 6.258 0 0016.25 24v-3.75H20z" fill="#0074E4"/><path fill-rule="evenodd" clip-rule="evenodd" d="M6.25 24A3.753 3.753 0 0110 20.25l3.75-.001V24A3.754 3.754 0 0110 27.75 3.754 3.754 0 016.25 24zM20 10.25A3.754 3.754 0 0123.75 14 3.754 3.754 0 0120 17.75h-3.75V14A3.754 3.754 0 0120 10.25zM27.5 4C28.875 4 30 5.125 30 6.5v25c0 1.375-1.125 2.5-2.5 2.5h-25A2.508 2.508 0 010 31.5v-25C0 5.125 1.125 4 2.5 4h25zM20 20.25A6.258 6.258 0 0026.25 14 6.258 6.258 0 0020 7.75 6.257 6.257 0 0013.75 14v3.75H10A6.257 6.257 0 003.75 24 6.258 6.258 0 0010 30.25 6.258 6.258 0 0016.25 24v-3.75H20z" fill="#0074E4"/><path fill-rule="evenodd" clip-rule="evenodd" d="M6.25 24A3.753 3.753 0 0110 20.25l3.75-.001V24A3.754 3.754 0 0110 27.75 3.754 3.754 0 016.25 24zM20 10.25A3.754 3.754 0 0123.75 14 3.754 3.754 0 0120 17.75h-3.75V14A3.754 3.754 0 0120 10.25zM27.5 4C28.875 4 30 5.125 30 6.5v25c0 1.375-1.125 2.5-2.5 2.5h-25A2.508 2.508 0 010 31.5v-25C0 5.125 1.125 4 2.5 4h25zM20 20.25A6.258 6.258 0 0026.25 14 6.258 6.258 0 0020 7.75 6.257 6.257 0 0013.75 14v3.75H10A6.257 6.257 0 003.75 24 6.258 6.258 0 0010 30.25 6.258 6.258 0 0016.25 24v-3.75H20z" fill="#0074E4"/><path fill-rule="evenodd" clip-rule="evenodd" d="M6.25 24A3.753 3.753 0 0110 20.25l3.75-.001V24A3.754 3.754 0 0110 27.75 3.754 3.754 0 016.25 24zM20 10.25A3.754 3.754 0 0123.75 14 3.754 3.754 0 0120 17.75h-3.75V14A3.754 3.754 0 0120 10.25zM27.5 4C28.875 4 30 5.125 30 6.5v25c0 1.375-1.125 2.5-2.5 2.5h-25A2.508 2.508 0 010 31.5v-25C0 5.125 1.125 4 2.5 4h25zM20 20.25A6.258 6.258 0 0026.25 14 6.258 6.258 0 0020 7.75 6.257 6.257 0 0013.75 14v3.75H10A6.257 6.257 0 003.75 24 6.258 6.258 0 0010 30.25 6.258 6.258 0 0016.25 24v-3.75H20z" fill="#0074E4"/><path d="M48.216 18.336C48.216 26.112 45.144 30 39 30h-7.416V7.644h7.56c3.288 0 5.616.924 6.984 2.772 1.392 1.824 2.088 4.464 2.088 7.92zm-9.324 6.48c1.272 0 2.088-.444 2.448-1.332.384-.912.576-2.424.576-4.536 0-2.136-.204-3.648-.612-4.536-.384-.888-1.224-1.332-2.52-1.332h-1.08v11.736h1.188zm17.581-11.88v17.496c0 1.872-.42 3.144-1.26 3.816-.816.696-2.352 1.044-4.608 1.044h-1.8l-.504-4.968h1.224c.408 0 .66-.06.756-.18.12-.096.18-.324.18-.684V12.936h6.012zm-5.58-1.368c-.504-.432-.756-1.128-.756-2.088 0-.96.252-1.668.756-2.124.504-.456 1.332-.684 2.484-.684s1.98.228 2.484.684c.504.456.756 1.164.756 2.124 0 .936-.252 1.632-.756 2.088-.504.432-1.332.648-2.484.648s-1.98-.216-2.484-.648zm12.35 18.792c-2.856 0-4.284-1.584-4.284-4.752V12.756h6.12v11.376c0 .6.264.9.792.9.672 0 1.236-.168 1.692-.504V12.756h6.048v17.172h-5.724v-1.26h-.144c-1.32 1.128-2.82 1.692-4.5 1.692zm18.533-16.344c1.32-1.128 2.772-1.692 4.356-1.692s2.688.372 3.312 1.116c.648.72.972 1.812.972 3.276V30h-6.12V18.768c0-.6-.264-.9-.792-.9-.672 0-1.236.168-1.692.504V30h-6.048V12.756h5.508l.36 1.26h.144zm10.504 7.308c0-3.168.6-5.46 1.8-6.876 1.224-1.416 3.12-2.124 5.688-2.124 2.592 0 4.476.696 5.652 2.088 1.176 1.392 1.764 3.684 1.764 6.876 0 3.168-.576 5.472-1.728 6.912-1.152 1.44-3.036 2.16-5.652 2.16s-4.524-.72-5.724-2.16c-1.2-1.44-1.8-3.732-1.8-6.876zm8.64-3.42c-.144-.48-.528-.72-1.152-.72-.624 0-1.02.24-1.188.72-.168.48-.252 1.488-.252 3.024v.864c0 1.704.084 2.808.252 3.312.168.504.552.756 1.152.756.624 0 1.02-.252 1.188-.756.168-.504.252-1.536.252-3.096v-1.044c0-1.56-.084-2.58-.252-3.06z" fill="#394149"/></svg>